# xmcd
#
# Track frame offsets:
#	150
#	14015
#	32222
#	48365
#
# Disc length: 933 seconds
#
# Revision: 1
# Processed by: cddbd v1.5.2PL0 Copyright (c) Steve Scherf et al.
# Submitted via: audiograbber 1.83.01
#
DISCID=2e03a304
DTITLE=Jimmy Nail - Maxi
DYEAR=1995
DGENRE=Country
TTITLE0=Love
TTITLE1=Crocodile Shoes
TTITLE2=Cowboy Dreams
TTITLE3=Once Upon A Time
EXTD=
EXTT0=
EXTT1=
EXTT2=
EXTT3=
PLAYORDER=
